<svg xmlns="http://www.w3.org/2000/svg" width="272" height="54" viewBox="0 0 272 54">
    <g fill="none">
<path fill="#968C83" d="M6.2,6.6h2.7v16.2H6.2V6.6z M26.9,22.8h2.7V6.6h-2.7V22.8z M33.1,22.8h2.7V6.6h-2.7V22.8z M0,22.8
	h2.7V6.6H0V22.8z M35.8,3.1H0v1.5h35.8V3.1z"/>
<path fill="#BA0020" d="M12.4,6.6h2.7v16.2h-2.7V6.6z M20.7,22.8h2.7V6.6h-2.7V22.8z M23.4,0h-11v1.5h11V0z M61.7,22.8v-7.9
	H54v7.9h-3.5V4.6H54v7.3h7.7V4.6h3.5v18.1H61.7z M79.6,16.6h-8.3c0,2.5,1.2,3.7,3.7,3.7c1.3,0,2.7-0.3,3.9-0.8l0.3,2.7
	c-1.4,0.6-3.1,0.9-4.8,0.9c-4.2,0-6.6-2.1-6.6-6.8c0-4.1,2.3-7.1,6.3-7.1c3.9,0,5.6,2.7,5.6,6C79.7,15.5,79.6,16.1,79.6,16.6z
	 M73.9,11.6c-1.4,0-2.4,1-2.6,2.7h4.9C76.3,12.6,75.4,11.6,73.9,11.6z M89.4,12.5c-2.5-0.5-3.7,1.1-3.7,4.8v5.5h-3.4V9.4h3.3
	c0,0.7-0.1,1.7-0.2,2.7h0.1c0.6-1.7,1.9-3.2,4.2-3L89.4,12.5z M96.7,23c-3,0-3.9-1.1-3.9-4.2v-6.8h-2.3V9.4h2.3V5.3l3.4-0.9v5h3.3
	v2.7h-3.3v5.9c0,1.7,0.4,2.2,1.6,2.2c0.6,0,1.2-0.1,1.7-0.2v2.8C98.6,22.9,97.6,23,96.7,23z M103.4,7.7c-1.2,0-2.1-0.9-2.1-2.1
	c0-1.1,0.9-2.1,2.1-2.1c1.2,0,2.2,0.9,2.2,2.1S104.6,7.7,103.4,7.7z M101.7,22.8V9.4h3.4v13.4H101.7z M119.3,16.6H111
	c0,2.5,1.2,3.7,3.7,3.7c1.3,0,2.7-0.3,3.9-0.8l0.3,2.7c-1.4,0.6-3.1,0.9-4.8,0.9c-4.2,0-6.6-2.1-6.6-6.8c0-4.1,2.3-7.1,6.3-7.1
	c3.9,0,5.6,2.7,5.6,6C119.4,15.5,119.4,16.1,119.3,16.6z M113.7,11.6c-1.4,0-2.4,1-2.6,2.7h4.9C116.1,12.6,115.1,11.6,113.7,11.6z
	 M131.2,23c-1.3,0-2.6-0.1-3.7-0.4l0.2-3.3c1,0.3,2.5,0.6,3.8,0.6c1.8,0,3.1-0.7,3.1-2.4c0-3.5-7.6-1.9-7.6-7.9
	c0-3.2,2.6-5.5,6.9-5.5c1,0,2.2,0.1,3.3,0.3l-0.2,3.1c-1-0.3-2.2-0.5-3.3-0.5c-2,0-3,0.9-3,2.2c0,3.3,7.6,2,7.6,7.7
	C138.4,20.5,135.7,23,131.2,23z M146.1,23c-3.7,0-6-1.9-6-6.5c0-4.2,2.2-7.4,6.9-7.4c0.9,0,1.9,0.1,2.7,0.4l-0.3,3
	c-0.7-0.3-1.6-0.5-2.4-0.5c-2.2,0-3.3,1.6-3.3,4.1c0,2.3,0.9,3.8,3.2,3.8c0.9,0,1.9-0.2,2.6-0.6l0.3,2.9
	C148.9,22.7,147.6,23,146.1,23z M160.3,22.8v-8.5c0-1.4-0.4-2.2-1.6-2.2c-1.7,0-3.1,2-3.1,4.3v6.5h-3.4V3.1h3.4v5.7
	c0,0.8-0.1,1.9-0.2,2.7l0.1,0c0.8-1.5,2.3-2.5,4.4-2.5c3,0,4,1.9,4,4.3v9.4H160.3z M172.4,23c-3.8,0-6.2-2-6.2-6.7
	c0-4.2,2.8-7.2,6.8-7.2c3.8,0,6.2,2.1,6.2,6.7C179.2,20,176.4,23,172.4,23z M172.7,12c-1.5,0-3,1.2-3,3.9c0,2.7,1,4.1,3,4.1
	c1.7,0,3-1.4,3-4.1C175.7,13.4,174.8,12,172.7,12z M187.1,23c-3.8,0-6.2-2-6.2-6.7c0-4.2,2.8-7.2,6.8-7.2c3.8,0,6.2,2.1,6.2,6.7
	C193.9,20,191.1,23,187.1,23z M187.4,12c-1.5,0-3,1.2-3,3.9c0,2.7,1,4.1,3,4.1c1.7,0,3-1.4,3-4.1C190.4,13.4,189.4,12,187.4,12z
	 M196.3,22.8V3.1h3.4v19.6H196.3z M54.4,47.7c-1.7,0-2.8-0.1-3.9-0.1V30.9c1.3,0,3-0.1,4.7-0.1c5.5,0,8.6,2.6,8.6,8.3
	C63.8,44.9,59.9,47.7,54.4,47.7z M55,32.1c-1,0-2.2,0-2.9,0.1v14c0.7,0.1,1.8,0.2,2.5,0.2c4.5,0,7.5-2.2,7.5-7.1
	C62.2,34.5,59.7,32.1,55,32.1z M73.2,47.6c0-1,0-2,0.1-2.7l0,0c-0.6,1.6-2.2,2.9-4.4,2.9c-1.9,0-3.3-1-3.3-2.9
	c0-2.5,2.6-4.3,7.6-4.3v-1.1c0-2-0.7-3.1-2.9-3.1c-1.2,0-2.7,0.4-3.8,1.1L66.4,36c1.2-0.5,2.6-0.9,4.2-0.9c3.3,0,4.2,1.7,4.2,4v4.7
	c0,1.3,0,2.7,0,3.8H73.2z M73.2,41.8c-4.9,0-6,1.6-6,2.8s0.8,2,2.1,2c2.3,0,3.9-2.3,3.9-4.6V41.8z M82.5,47.8
	c-2.4,0-3.1-1.1-3.1-3.6v-7.7h-2.8v-1.2h2.8v-4.2l1.6-0.4v4.6h3.8v1.2H81v6.9c0,2.3,0.4,2.9,2,2.9c0.6,0,1.3-0.1,1.8-0.2v1.4
	C84.2,47.7,83.3,47.8,82.5,47.8z M94.4,47.6c0-1,0-2,0.1-2.7l0,0c-0.6,1.6-2.2,2.9-4.4,2.9c-1.9,0-3.3-1-3.3-2.9
	c0-2.5,2.6-4.3,7.6-4.3v-1.1c0-2-0.7-3.1-2.9-3.1c-1.2,0-2.7,0.4-3.8,1.1L87.5,36c1.2-0.5,2.6-0.9,4.2-0.9c3.3,0,4.2,1.7,4.2,4v4.7
	c0,1.3,0,2.7,0,3.8H94.4z M94.3,41.8c-4.9,0-6,1.6-6,2.8s0.8,2,2.1,2c2.3,0,3.9-2.3,3.9-4.6V41.8z M108.6,47.8
	c-1.3,0-2.4-0.1-3.4-0.4l0.1-1.6c1,0.3,2.3,0.6,3.4,0.6c2.2,0,4.2-0.9,4.2-3.3c0-4.1-7.9-2.6-7.9-7.8c0-2.6,2.1-4.5,5.7-4.5
	c1.1,0,2,0.1,3,0.3l-0.1,1.5c-0.9-0.3-2-0.5-3-0.5c-2.5,0-3.9,1.2-3.9,3c0,4,7.9,2.6,7.9,7.8C114.5,45.8,112.3,47.8,108.6,47.8z
	 M122.1,47.7c-2.6,0-5.3-1.1-5.3-5.9c0-4.1,2-6.7,6-6.7c1,0,2.1,0.1,3,0.4l-0.2,1.4c-0.8-0.3-1.9-0.6-3-0.6c-2.8,0-4.2,2.1-4.2,5.2
	c0,2.6,0.8,4.8,3.9,4.8c1.2,0,2.4-0.3,3.3-0.7l0.1,1.4C125,47.4,123.6,47.7,122.1,47.7z M129.1,33c-0.6,0-1.1-0.5-1.1-1.1
	c0-0.6,0.5-1.1,1.1-1.1s1.1,0.5,1.1,1.1C130.2,32.5,129.7,33,129.1,33z M128.3,47.6V35.3h1.6v12.3H128.3z M142.7,40.9h-8.3
	c-0.1,4,1.4,5.6,4.2,5.6c1.3,0,2.7-0.3,3.6-0.8l0.1,1.4c-1.1,0.4-2.4,0.7-4,0.7c-3.7,0-5.6-2-5.6-6.3c0-3.7,2-6.4,5.3-6.4
	c3.3,0,4.7,2.3,4.7,4.9C142.8,40.2,142.8,40.5,142.7,40.9z M138,36.3c-1.8,0-3.1,1.3-3.5,3.4h6.6C141.2,37.7,140,36.3,138,36.3z
	 M153.7,47.6v-8c0-2.1-0.6-3.3-2.5-3.3c-2.3,0-4,2.3-4,5.4v5.9h-1.6V35.3h1.6c0,0.8-0.1,2.1-0.2,2.8l0,0c0.7-1.9,2.3-3.1,4.5-3.1
	c2.8,0,3.7,1.8,3.7,4v8.6H153.7z M163.5,47.7c-2.6,0-5.3-1.1-5.3-5.9c0-4.1,2-6.7,6-6.7c1,0,2.1,0.1,3,0.4L167,37
	c-0.8-0.3-1.9-0.6-3-0.6c-2.8,0-4.2,2.1-4.2,5.2c0,2.6,0.8,4.8,3.9,4.8c1.2,0,2.4-0.3,3.3-0.7l0.1,1.4
	C166.4,47.4,165,47.7,163.5,47.7z M178.6,40.9h-8.3c-0.1,4,1.4,5.6,4.2,5.6c1.3,0,2.7-0.3,3.6-0.8l0.1,1.4c-1.1,0.4-2.4,0.7-4,0.7
	c-3.7,0-5.6-2-5.6-6.3c0-3.7,2-6.4,5.3-6.4c3.3,0,4.7,2.3,4.7,4.9C178.7,40.2,178.7,40.5,178.6,40.9z M173.9,36.3
	c-1.8,0-3.1,1.3-3.5,3.4h6.6C177.1,37.7,175.9,36.3,173.9,36.3z M187.6,47.6V30.9h1.6v15.4h6.4v1.3H187.6z M204.7,47.6
	c0-1,0-2,0.1-2.7l0,0c-0.6,1.6-2.2,2.9-4.4,2.9c-1.9,0-3.3-1-3.3-2.9c0-2.5,2.6-4.3,7.6-4.3v-1.1c0-2-0.7-3.1-2.9-3.1
	c-1.2,0-2.7,0.4-3.8,1.1l-0.2-1.4c1.2-0.5,2.6-0.9,4.2-0.9c3.3,0,4.2,1.7,4.2,4v4.7c0,1.3,0,2.7,0,3.8H204.7z M204.7,41.8
	c-4.9,0-6,1.6-6,2.8s0.8,2,2.1,2c2.3,0,3.9-2.3,3.9-4.6V41.8z M214.1,47.7c-1.6,0-2.7-0.1-4-0.4V29.5h1.6V36c0,0.7-0.1,1.6-0.2,2.2
	l0,0c0.7-2,2.3-3.1,4.3-3.1c2.9,0,4.6,2,4.6,5.8C220.3,45.3,217.8,47.7,214.1,47.7z M215.5,36.4c-2.6,0-3.9,3.1-3.9,5.3v4.5
	c0.8,0.3,1.6,0.4,2.6,0.4c2.7,0,4.5-1.6,4.5-5.5C218.7,38.1,217.7,36.4,215.5,36.4z"/>
    </g>
</svg>
